<?xml version="1.0" encoding="utf-8"?>
<svg width="198px" height="198px" viewBox="0 0 198 198" version="1.1" xmlns:xlink="http://www.w3.org/1999/xlink" xmlns="http://www.w3.org/2000/svg">
  <desc>Created with Lunacy</desc>
  <g id="Ornament/Dotted/darkblue">
    <g id="Ornament/Dotted/white">
      <path d="M5.5 2.75C5.5 4.26869 4.26869 5.5 2.75 5.5C1.23131 5.5 0 4.26869 0 2.75C0 1.23131 1.23131 0 2.75 0C4.26869 0 5.5 1.23131 5.5 2.75" id="Fill-1" fill="#3B43F2" fill-rule="evenodd" stroke="none" />
      <path d="M5.5 2.75C5.5 4.26869 4.26869 5.5 2.75 5.5C1.23131 5.5 0 4.26869 0 2.75C0 1.23131 1.23131 0 2.75 0C4.26869 0 5.5 1.23131 5.5 2.75" transform="translate(27.500002 0)" id="Fill-3" fill="#3B43F2" fill-rule="evenodd" stroke="none" />
      <path d="M5.5 2.75C5.5 4.26869 4.26869 5.5 2.75 5.5C1.23131 5.5 0 4.26869 0 2.75C0 1.23131 1.23131 0 2.75 0C4.26869 0 5.5 1.23131 5.5 2.75" transform="translate(55.000004 0)" id="Fill-5" fill="#3B43F2" fill-rule="evenodd" stroke="none" />
      <path d="M5.5 2.75C5.5 4.26869 4.26869 5.5 2.75 5.5C1.23131 5.5 0 4.26869 0 2.75C0 1.23131 1.23131 0 2.75 0C4.26869 0 5.5 1.23131 5.5 2.75" transform="translate(82.5 0)" id="Fill-7" fill="#3B43F2" fill-rule="evenodd" stroke="none" />
      <path d="M5.5 2.75C5.5 4.26869 4.26869 5.5 2.75 5.5C1.23131 5.5 0 4.26869 0 2.75C0 1.23131 1.23131 0 2.75 0C4.26869 0 5.5 1.23131 5.5 2.75" transform="translate(110.00001 0)" id="Fill-9" fill="#3B43F2" fill-rule="evenodd" stroke="none" />
      <path d="M5.5 2.75C5.5 4.26869 4.26869 5.5 2.75 5.5C1.23131 5.5 0 4.26869 0 2.75C0 1.23131 1.23131 0 2.75 0C4.26869 0 5.5 1.23131 5.5 2.75" transform="translate(137.5 0)" id="Fill-11" fill="#3B43F2" fill-rule="evenodd" stroke="none" />
      <path d="M5.5 2.75C5.5 4.26869 4.26869 5.5 2.75 5.5C1.23131 5.5 0 4.26869 0 2.75C0 1.23131 1.23131 0 2.75 0C4.26869 0 5.5 1.23131 5.5 2.75" transform="translate(165 0)" id="Fill-13" fill="#3B43F2" fill-rule="evenodd" stroke="none" />
      <path d="M5.5 2.75C5.5 4.26869 4.26869 5.5 2.75 5.5C1.23131 5.5 0 4.26869 0 2.75C0 1.23131 1.23131 0 2.75 0C4.26869 0 5.5 1.23131 5.5 2.75" transform="translate(192.5 0)" id="Fill-15" fill="#3B43F2" fill-rule="evenodd" stroke="none" />
      <path d="M5.5 2.75C5.5 4.26869 4.26869 5.5 2.75 5.5C1.23131 5.5 0 4.26869 0 2.75C0 1.23131 1.23131 0 2.75 0C4.26869 0 5.5 1.23131 5.5 2.75" transform="translate(0 27.500002)" id="Fill-17" fill="#3B43F2" fill-rule="evenodd" stroke="none" />
      <path d="M5.5 2.75C5.5 4.26869 4.26869 5.5 2.75 5.5C1.23131 5.5 0 4.26869 0 2.75C0 1.23131 1.23131 0 2.75 0C4.26869 0 5.5 1.23131 5.5 2.75" transform="translate(27.500002 27.500002)" id="Fill-19" fill="#3B43F2" fill-rule="evenodd" stroke="none" />
      <path d="M5.5 2.75C5.5 4.26869 4.26869 5.5 2.75 5.5C1.23131 5.5 0 4.26869 0 2.75C0 1.23131 1.23131 0 2.75 0C4.26869 0 5.5 1.23131 5.5 2.75" transform="translate(55.000004 27.500002)" id="Fill-21" fill="#3B43F2" fill-rule="evenodd" stroke="none" />
      <path d="M5.5 2.75C5.5 4.26869 4.26869 5.5 2.75 5.5C1.23131 5.5 0 4.26869 0 2.75C0 1.23131 1.23131 0 2.75 0C4.26869 0 5.5 1.23131 5.5 2.75" transform="translate(82.5 27.500002)" id="Fill-23" fill="#3B43F2" fill-rule="evenodd" stroke="none" />
      <path d="M5.5 2.75C5.5 4.26869 4.26869 5.5 2.75 5.5C1.23131 5.5 0 4.26869 0 2.75C0 1.23131 1.23131 0 2.75 0C4.26869 0 5.5 1.23131 5.5 2.75" transform="translate(110.00001 27.500002)" id="Fill-25" fill="#3B43F2" fill-rule="evenodd" stroke="none" />
      <path d="M5.5 2.75C5.5 4.26869 4.26869 5.5 2.75 5.5C1.23131 5.5 0 4.26869 0 2.75C0 1.23131 1.23131 0 2.75 0C4.26869 0 5.5 1.23131 5.5 2.75" transform="translate(137.5 27.500002)" id="Fill-27" fill="#3B43F2" fill-rule="evenodd" stroke="none" />
      <path d="M5.5 2.75C5.5 4.26869 4.26869 5.5 2.75 5.5C1.23131 5.5 0 4.26869 0 2.75C0 1.23131 1.23131 0 2.75 0C4.26869 0 5.5 1.23131 5.5 2.75" transform="translate(165 27.500002)" id="Fill-29" fill="#3B43F2" fill-rule="evenodd" stroke="none" />
      <path d="M5.5 2.75C5.5 4.26869 4.26869 5.5 2.75 5.5C1.23131 5.5 0 4.26869 0 2.75C0 1.23131 1.23131 0 2.75 0C4.26869 0 5.5 1.23131 5.5 2.75" transform="translate(192.5 27.500002)" id="Fill-31" fill="#3B43F2" fill-rule="evenodd" stroke="none" />
      <path d="M5.5 2.75C5.5 4.26869 4.26869 5.5 2.75 5.5C1.23131 5.5 0 4.26869 0 2.75C0 1.23131 1.23131 0 2.75 0C4.26869 0 5.5 1.23131 5.5 2.75" transform="translate(0 55.000004)" id="Fill-33" fill="#3B43F2" fill-rule="evenodd" stroke="none" />
      <path d="M5.5 2.75C5.5 4.26869 4.26869 5.5 2.75 5.5C1.23131 5.5 0 4.26869 0 2.75C0 1.23131 1.23131 0 2.75 0C4.26869 0 5.5 1.23131 5.5 2.75" transform="translate(27.500002 55.000004)" id="Fill-35" fill="#3B43F2" fill-rule="evenodd" stroke="none" />
      <path d="M5.5 2.75C5.5 4.26869 4.26869 5.5 2.75 5.5C1.23131 5.5 0 4.26869 0 2.75C0 1.23131 1.23131 0 2.75 0C4.26869 0 5.5 1.23131 5.5 2.75" transform="translate(55.000004 55.000004)" id="Fill-37" fill="#3B43F2" fill-rule="evenodd" stroke="none" />
      <path d="M5.5 2.75C5.5 4.26869 4.26869 5.5 2.75 5.5C1.23131 5.5 0 4.26869 0 2.75C0 1.23131 1.23131 0 2.75 0C4.26869 0 5.5 1.23131 5.5 2.75" transform="translate(82.5 55.000004)" id="Fill-39" fill="#3B43F2" fill-rule="evenodd" stroke="none" />
      <path d="M5.5 2.75C5.5 4.26869 4.26869 5.5 2.75 5.5C1.23131 5.5 0 4.26869 0 2.75C0 1.23131 1.23131 0 2.75 0C4.26869 0 5.5 1.23131 5.5 2.75" transform="translate(110.00001 55.000004)" id="Fill-41" fill="#3B43F2" fill-rule="evenodd" stroke="none" />
      <path d="M5.5 2.75C5.5 4.26869 4.26869 5.5 2.75 5.5C1.23131 5.5 0 4.26869 0 2.75C0 1.23131 1.23131 0 2.75 0C4.26869 0 5.5 1.23131 5.5 2.75" transform="translate(137.5 55.000004)" id="Fill-43" fill="#3B43F2" fill-rule="evenodd" stroke="none" />
      <path d="M5.5 2.75C5.5 4.26869 4.26869 5.5 2.75 5.5C1.23131 5.5 0 4.26869 0 2.75C0 1.23131 1.23131 0 2.75 0C4.26869 0 5.5 1.23131 5.5 2.75" transform="translate(165 55.000004)" id="Fill-45" fill="#3B43F2" fill-rule="evenodd" stroke="none" />
      <path d="M5.5 2.75C5.5 4.26869 4.26869 5.5 2.75 5.5C1.23131 5.5 0 4.26869 0 2.75C0 1.23131 1.23131 0 2.75 0C4.26869 0 5.5 1.23131 5.5 2.75" transform="translate(192.5 55.000004)" id="Fill-47" fill="#3B43F2" fill-rule="evenodd" stroke="none" />
      <path d="M5.5 2.75C5.5 4.26869 4.26869 5.5 2.75 5.5C1.23131 5.5 0 4.26869 0 2.75C0 1.23131 1.23131 0 2.75 0C4.26869 0 5.5 1.23131 5.5 2.75" transform="translate(0 82.5)" id="Fill-49" fill="#3B43F2" fill-rule="evenodd" stroke="none" />
      <path d="M5.5 2.75C5.5 4.26869 4.26869 5.5 2.75 5.5C1.23131 5.5 0 4.26869 0 2.75C0 1.23131 1.23131 0 2.75 0C4.26869 0 5.5 1.23131 5.5 2.75" transform="translate(27.500002 82.5)" id="Fill-51" fill="#3B43F2" fill-rule="evenodd" stroke="none" />
      <path d="M5.5 2.75C5.5 4.26869 4.26869 5.5 2.75 5.5C1.23131 5.5 0 4.26869 0 2.75C0 1.23131 1.23131 0 2.75 0C4.26869 0 5.5 1.23131 5.5 2.75" transform="translate(55.000004 82.5)" id="Fill-53" fill="#3B43F2" fill-rule="evenodd" stroke="none" />
      <path d="M5.5 2.75C5.5 4.26869 4.26869 5.5 2.75 5.5C1.23131 5.5 0 4.26869 0 2.75C0 1.23131 1.23131 0 2.75 0C4.26869 0 5.5 1.23131 5.5 2.75" transform="translate(82.5 82.5)" id="Fill-55" fill="#3B43F2" fill-rule="evenodd" stroke="none" />
      <path d="M5.5 2.75C5.5 4.26869 4.26869 5.5 2.75 5.5C1.23131 5.5 0 4.26869 0 2.75C0 1.23131 1.23131 0 2.75 0C4.26869 0 5.5 1.23131 5.5 2.75" transform="translate(110.00001 82.5)" id="Fill-57" fill="#3B43F2" fill-rule="evenodd" stroke="none" />
      <path d="M5.5 2.75C5.5 4.26869 4.26869 5.5 2.75 5.5C1.23131 5.5 0 4.26869 0 2.75C0 1.23131 1.23131 0 2.75 0C4.26869 0 5.5 1.23131 5.5 2.75" transform="translate(137.5 82.5)" id="Fill-59" fill="#3B43F2" fill-rule="evenodd" stroke="none" />
      <path d="M5.5 2.75C5.5 4.26869 4.26869 5.5 2.75 5.5C1.23131 5.5 0 4.26869 0 2.75C0 1.23131 1.23131 0 2.75 0C4.26869 0 5.5 1.23131 5.5 2.75" transform="translate(165 82.5)" id="Fill-61" fill="#3B43F2" fill-rule="evenodd" stroke="none" />
      <path d="M5.5 2.75C5.5 4.26869 4.26869 5.5 2.75 5.5C1.23131 5.5 0 4.26869 0 2.75C0 1.23131 1.23131 0 2.75 0C4.26869 0 5.5 1.23131 5.5 2.75" transform="translate(192.5 82.5)" id="Fill-63" fill="#3B43F2" fill-rule="evenodd" stroke="none" />
      <path d="M5.5 2.75C5.5 4.26869 4.26869 5.5 2.75 5.5C1.23131 5.5 0 4.26869 0 2.75C0 1.23131 1.23131 0 2.75 0C4.26869 0 5.5 1.23131 5.5 2.75" transform="translate(0 110.00001)" id="Fill-65" fill="#3B43F2" fill-rule="evenodd" stroke="none" />
      <path d="M5.5 2.75C5.5 4.26869 4.26869 5.5 2.75 5.5C1.23131 5.5 0 4.26869 0 2.75C0 1.23131 1.23131 0 2.75 0C4.26869 0 5.5 1.23131 5.5 2.75" transform="translate(27.500002 110.00001)" id="Fill-67" fill="#3B43F2" fill-rule="evenodd" stroke="none" />
      <path d="M5.5 2.75C5.5 4.26869 4.26869 5.5 2.75 5.5C1.23131 5.5 0 4.26869 0 2.75C0 1.23131 1.23131 0 2.75 0C4.26869 0 5.5 1.23131 5.5 2.75" transform="translate(55.000004 110.00001)" id="Fill-69" fill="#3B43F2" fill-rule="evenodd" stroke="none" />
      <path d="M5.5 2.75C5.5 4.26869 4.26869 5.5 2.75 5.5C1.23131 5.5 0 4.26869 0 2.75C0 1.23131 1.23131 0 2.75 0C4.26869 0 5.5 1.23131 5.5 2.75" transform="translate(82.5 110.00001)" id="Fill-71" fill="#3B43F2" fill-rule="evenodd" stroke="none" />
      <path d="M5.5 2.75C5.5 4.26869 4.26869 5.5 2.75 5.5C1.23131 5.5 0 4.26869 0 2.75C0 1.23131 1.23131 0 2.75 0C4.26869 0 5.5 1.23131 5.5 2.75" transform="translate(110.00001 110.00001)" id="Fill-73" fill="#3B43F2" fill-rule="evenodd" stroke="none" />
      <path d="M5.5 2.75C5.5 4.26869 4.26869 5.5 2.75 5.5C1.23131 5.5 0 4.26869 0 2.75C0 1.23131 1.23131 0 2.75 0C4.26869 0 5.5 1.23131 5.5 2.75" transform="translate(137.5 110.00001)" id="Fill-75" fill="#3B43F2" fill-rule="evenodd" stroke="none" />
      <path d="M5.5 2.75C5.5 4.26869 4.26869 5.5 2.75 5.5C1.23131 5.5 0 4.26869 0 2.75C0 1.23131 1.23131 0 2.75 0C4.26869 0 5.5 1.23131 5.5 2.75" transform="translate(165 110.00001)" id="Fill-77" fill="#3B43F2" fill-rule="evenodd" stroke="none" />
      <path d="M5.5 2.75C5.5 4.26869 4.26869 5.5 2.75 5.5C1.23131 5.5 0 4.26869 0 2.75C0 1.23131 1.23131 0 2.75 0C4.26869 0 5.5 1.23131 5.5 2.75" transform="translate(192.5 110.00001)" id="Fill-79" fill="#3B43F2" fill-rule="evenodd" stroke="none" />
      <path d="M5.5 2.75C5.5 4.26869 4.26869 5.5 2.75 5.5C1.23131 5.5 0 4.26869 0 2.75C0 1.23131 1.23131 0 2.75 0C4.26869 0 5.5 1.23131 5.5 2.75" transform="translate(0 137.5)" id="Fill-81" fill="#3B43F2" fill-rule="evenodd" stroke="none" />
      <path d="M5.5 2.75C5.5 4.26869 4.26869 5.5 2.75 5.5C1.23131 5.5 0 4.26869 0 2.75C0 1.23131 1.23131 0 2.75 0C4.26869 0 5.5 1.23131 5.5 2.75" transform="translate(27.500002 137.5)" id="Fill-83" fill="#3B43F2" fill-rule="evenodd" stroke="none" />
      <path d="M5.5 2.75C5.5 4.26869 4.26869 5.5 2.75 5.5C1.23131 5.5 0 4.26869 0 2.75C0 1.23131 1.23131 0 2.75 0C4.26869 0 5.5 1.23131 5.5 2.75" transform="translate(55.000004 137.5)" id="Fill-85" fill="#3B43F2" fill-rule="evenodd" stroke="none" />
      <path d="M5.5 2.75C5.5 4.26869 4.26869 5.5 2.75 5.5C1.23131 5.5 0 4.26869 0 2.75C0 1.23131 1.23131 0 2.75 0C4.26869 0 5.5 1.23131 5.5 2.75" transform="translate(82.5 137.5)" id="Fill-87" fill="#3B43F2" fill-rule="evenodd" stroke="none" />
      <path d="M5.5 2.75C5.5 4.26869 4.26869 5.5 2.75 5.5C1.23131 5.5 0 4.26869 0 2.75C0 1.23131 1.23131 0 2.75 0C4.26869 0 5.5 1.23131 5.5 2.75" transform="translate(110.00001 137.5)" id="Fill-89" fill="#3B43F2" fill-rule="evenodd" stroke="none" />
      <path d="M5.5 2.75C5.5 4.26869 4.26869 5.5 2.75 5.5C1.23131 5.5 0 4.26869 0 2.75C0 1.23131 1.23131 0 2.75 0C4.26869 0 5.5 1.23131 5.5 2.75" transform="translate(137.5 137.5)" id="Fill-91" fill="#3B43F2" fill-rule="evenodd" stroke="none" />
      <path d="M5.5 2.75C5.5 4.26869 4.26869 5.5 2.75 5.5C1.23131 5.5 0 4.26869 0 2.75C0 1.23131 1.23131 0 2.75 0C4.26869 0 5.5 1.23131 5.5 2.75" transform="translate(165 137.5)" id="Fill-93" fill="#3B43F2" fill-rule="evenodd" stroke="none" />
      <path d="M5.5 2.75C5.5 4.26869 4.26869 5.5 2.75 5.5C1.23131 5.5 0 4.26869 0 2.75C0 1.23131 1.23131 0 2.75 0C4.26869 0 5.5 1.23131 5.5 2.75" transform="translate(192.5 137.5)" id="Fill-95" fill="#3B43F2" fill-rule="evenodd" stroke="none" />
      <path d="M5.5 2.75C5.5 4.26869 4.26869 5.5 2.75 5.5C1.23131 5.5 0 4.26869 0 2.75C0 1.23131 1.23131 0 2.75 0C4.26869 0 5.5 1.23131 5.5 2.75" transform="translate(0 165)" id="Fill-97" fill="#3B43F2" fill-rule="evenodd" stroke="none" />
      <path d="M5.5 2.75C5.5 4.26869 4.26869 5.5 2.75 5.5C1.23131 5.5 0 4.26869 0 2.75C0 1.23131 1.23131 0 2.75 0C4.26869 0 5.5 1.23131 5.5 2.75" transform="translate(27.500002 165)" id="Fill-99" fill="#3B43F2" fill-rule="evenodd" stroke="none" />
      <path d="M5.5 2.75C5.5 4.26869 4.26869 5.5 2.75 5.5C1.23131 5.5 0 4.26869 0 2.75C0 1.23131 1.23131 0 2.75 0C4.26869 0 5.5 1.23131 5.5 2.75" transform="translate(55.000004 165)" id="Fill-101" fill="#3B43F2" fill-rule="evenodd" stroke="none" />
      <path d="M5.5 2.75C5.5 4.26869 4.26869 5.5 2.75 5.5C1.23131 5.5 0 4.26869 0 2.75C0 1.23131 1.23131 0 2.75 0C4.26869 0 5.5 1.23131 5.5 2.75" transform="translate(82.5 165)" id="Fill-103" fill="#3B43F2" fill-rule="evenodd" stroke="none" />
      <path d="M5.5 2.75C5.5 4.26869 4.26869 5.5 2.75 5.5C1.23131 5.5 0 4.26869 0 2.75C0 1.23131 1.23131 0 2.75 0C4.26869 0 5.5 1.23131 5.5 2.75" transform="translate(110.00001 165)" id="Fill-105" fill="#3B43F2" fill-rule="evenodd" stroke="none" />
      <path d="M5.5 2.75C5.5 4.26869 4.26869 5.5 2.75 5.5C1.23131 5.5 0 4.26869 0 2.75C0 1.23131 1.23131 0 2.75 0C4.26869 0 5.5 1.23131 5.5 2.75" transform="translate(137.5 165)" id="Fill-107" fill="#3B43F2" fill-rule="evenodd" stroke="none" />
      <path d="M5.5 2.75C5.5 4.26869 4.26869 5.5 2.75 5.5C1.23131 5.5 0 4.26869 0 2.75C0 1.23131 1.23131 0 2.75 0C4.26869 0 5.5 1.23131 5.5 2.75" transform="translate(165 165)" id="Fill-109" fill="#3B43F2" fill-rule="evenodd" stroke="none" />
      <path d="M5.5 2.75C5.5 4.26869 4.26869 5.5 2.75 5.5C1.23131 5.5 0 4.26869 0 2.75C0 1.23131 1.23131 0 2.75 0C4.26869 0 5.5 1.23131 5.5 2.75" transform="translate(192.5 165)" id="Fill-111" fill="#3B43F2" fill-rule="evenodd" stroke="none" />
      <path d="M5.5 2.75C5.5 4.26869 4.26869 5.5 2.75 5.5C1.23131 5.5 0 4.26869 0 2.75C0 1.23131 1.23131 0 2.75 0C4.26869 0 5.5 1.23131 5.5 2.75" transform="translate(0 192.5)" id="Fill-113" fill="#3B43F2" fill-rule="evenodd" stroke="none" />
      <path d="M5.5 2.75C5.5 4.26869 4.26869 5.5 2.75 5.5C1.23131 5.5 0 4.26869 0 2.75C0 1.23131 1.23131 0 2.75 0C4.26869 0 5.5 1.23131 5.5 2.75" transform="translate(27.500002 192.5)" id="Fill-115" fill="#3B43F2" fill-rule="evenodd" stroke="none" />
      <path d="M5.5 2.75C5.5 4.26869 4.26869 5.5 2.75 5.5C1.23131 5.5 0 4.26869 0 2.75C0 1.23131 1.23131 0 2.75 0C4.26869 0 5.5 1.23131 5.5 2.75" transform="translate(55.000004 192.5)" id="Fill-117" fill="#3B43F2" fill-rule="evenodd" stroke="none" />
      <path d="M5.5 2.75C5.5 4.26869 4.26869 5.5 2.75 5.5C1.23131 5.5 0 4.26869 0 2.75C0 1.23131 1.23131 0 2.75 0C4.26869 0 5.5 1.23131 5.5 2.75" transform="translate(82.5 192.5)" id="Fill-119" fill="#3B43F2" fill-rule="evenodd" stroke="none" />
      <path d="M5.5 2.75C5.5 4.26869 4.26869 5.5 2.75 5.5C1.23131 5.5 0 4.26869 0 2.75C0 1.23131 1.23131 0 2.75 0C4.26869 0 5.5 1.23131 5.5 2.75" transform="translate(110.00001 192.5)" id="Fill-121" fill="#3B43F2" fill-rule="evenodd" stroke="none" />
      <path d="M5.5 2.75C5.5 4.26869 4.26869 5.5 2.75 5.5C1.23131 5.5 0 4.26869 0 2.75C0 1.23131 1.23131 0 2.75 0C4.26869 0 5.5 1.23131 5.5 2.75" transform="translate(137.5 192.5)" id="Fill-123" fill="#3B43F2" fill-rule="evenodd" stroke="none" />
      <path d="M5.5 2.75C5.5 4.26869 4.26869 5.5 2.75 5.5C1.23131 5.5 0 4.26869 0 2.75C0 1.23131 1.23131 0 2.75 0C4.26869 0 5.5 1.23131 5.5 2.75" transform="translate(165 192.5)" id="Fill-125" fill="#3B43F2" fill-rule="evenodd" stroke="none" />
      <path d="M5.5 2.75C5.5 4.26869 4.26869 5.5 2.75 5.5C1.23131 5.5 0 4.26869 0 2.75C0 1.23131 1.23131 0 2.75 0C4.26869 0 5.5 1.23131 5.5 2.75" transform="translate(192.5 192.5)" id="Fill-127" fill="#3B43F2" fill-rule="evenodd" stroke="none" />
    </g>
  </g>
</svg>