<svg fill="white"  width="238px" height="238px" viewBox="0 0 238 238" version="1.1" xmlns:xlink="http://www.w3.org/1999/xlink" xmlns="http://www.w3.org/2000/svg">
  <desc>Created with Lunacy</desc>
  <g id="Ornament/Dotted/white" >
    <g id="Ornament/Dotted/white" >
      <path d="M6.61111 3.30556C6.61111 5.13105 5.13105 6.61111 3.30556 6.61111C1.48006 6.61111 0 5.13105 0 3.30556C0 1.48006 1.48006 0 3.30556 0C5.13105 0 6.61111 1.48006 6.61111 3.30556" id="Fill-1" fill-rule="evenodd" stroke="none" />
      <path d="M6.61111 3.30556C6.61111 5.13105 5.13105 6.61111 3.30556 6.61111C1.48006 6.61111 0 5.13105 0 3.30556C0 1.48006 1.48006 0 3.30556 0C5.13105 0 6.61111 1.48006 6.61111 3.30556" transform="translate(33.055557 0)" id="Fill-3"  fill-rule="evenodd" stroke="none" />
      <path d="M6.61111 3.30556C6.61111 5.13105 5.13105 6.61111 3.30556 6.61111C1.48006 6.61111 0 5.13105 0 3.30556C0 1.48006 1.48006 0 3.30556 0C5.13105 0 6.61111 1.48006 6.61111 3.30556" transform="translate(66.111115 0)" id="Fill-5"  fill-rule="evenodd" stroke="none" />
      <path d="M6.61111 3.30556C6.61111 5.13105 5.13105 6.61111 3.30556 6.61111C1.48006 6.61111 0 5.13105 0 3.30556C0 1.48006 1.48006 0 3.30556 0C5.13105 0 6.61111 1.48006 6.61111 3.30556" transform="translate(99.166664 0)" id="Fill-7"  fill-rule="evenodd" stroke="none" />
      <path d="M6.61111 3.30556C6.61111 5.13105 5.13105 6.61111 3.30556 6.61111C1.48006 6.61111 0 5.13105 0 3.30556C0 1.48006 1.48006 0 3.30556 0C5.13105 0 6.61111 1.48006 6.61111 3.30556" transform="translate(132.22223 0)" id="Fill-9"  fill-rule="evenodd" stroke="none" />
      <path d="M6.61111 3.30556C6.61111 5.13105 5.13105 6.61111 3.30556 6.61111C1.48006 6.61111 0 5.13105 0 3.30556C0 1.48006 1.48006 0 3.30556 0C5.13105 0 6.61111 1.48006 6.61111 3.30556" transform="translate(165.27777 0)" id="Fill-11"  fill-rule="evenodd" stroke="none" />
      <path d="M6.61111 3.30556C6.61111 5.13105 5.13105 6.61111 3.30556 6.61111C1.48006 6.61111 0 5.13105 0 3.30556C0 1.48006 1.48006 0 3.30556 0C5.13105 0 6.61111 1.48006 6.61111 3.30556" transform="translate(198.33333 0)" id="Fill-13"  fill-rule="evenodd" stroke="none" />
      <path d="M6.61111 3.30556C6.61111 5.13105 5.13105 6.61111 3.30556 6.61111C1.48006 6.61111 0 5.13105 0 3.30556C0 1.48006 1.48006 0 3.30556 0C5.13105 0 6.61111 1.48006 6.61111 3.30556" transform="translate(231.38889 0)" id="Fill-15"  fill-rule="evenodd" stroke="none" />
      <path d="M6.61111 3.30556C6.61111 5.13105 5.13105 6.61111 3.30556 6.61111C1.48006 6.61111 0 5.13105 0 3.30556C0 1.48006 1.48006 0 3.30556 0C5.13105 0 6.61111 1.48006 6.61111 3.30556" transform="translate(0 33.055557)" id="Fill-17"  fill-rule="evenodd" stroke="none" />
      <path d="M6.61111 3.30556C6.61111 5.13105 5.13105 6.61111 3.30556 6.61111C1.48006 6.61111 0 5.13105 0 3.30556C0 1.48006 1.48006 0 3.30556 0C5.13105 0 6.61111 1.48006 6.61111 3.30556" transform="translate(33.055557 33.055557)" id="Fill-19"  fill-rule="evenodd" stroke="none" />
      <path d="M6.61111 3.30556C6.61111 5.13105 5.13105 6.61111 3.30556 6.61111C1.48006 6.61111 0 5.13105 0 3.30556C0 1.48006 1.48006 0 3.30556 0C5.13105 0 6.61111 1.48006 6.61111 3.30556" transform="translate(66.111115 33.055557)" id="Fill-21"  fill-rule="evenodd" stroke="none" />
      <path d="M6.61111 3.30556C6.61111 5.13105 5.13105 6.61111 3.30556 6.61111C1.48006 6.61111 0 5.13105 0 3.30556C0 1.48006 1.48006 0 3.30556 0C5.13105 0 6.61111 1.48006 6.61111 3.30556" transform="translate(99.166664 33.055557)" id="Fill-23"  fill-rule="evenodd" stroke="none" />
      <path d="M6.61111 3.30556C6.61111 5.13105 5.13105 6.61111 3.30556 6.61111C1.48006 6.61111 0 5.13105 0 3.30556C0 1.48006 1.48006 0 3.30556 0C5.13105 0 6.61111 1.48006 6.61111 3.30556" transform="translate(132.22223 33.055557)" id="Fill-25"  fill-rule="evenodd" stroke="none" />
      <path d="M6.61111 3.30556C6.61111 5.13105 5.13105 6.61111 3.30556 6.61111C1.48006 6.61111 0 5.13105 0 3.30556C0 1.48006 1.48006 0 3.30556 0C5.13105 0 6.61111 1.48006 6.61111 3.30556" transform="translate(165.27777 33.055557)" id="Fill-27"  fill-rule="evenodd" stroke="none" />
      <path d="M6.61111 3.30556C6.61111 5.13105 5.13105 6.61111 3.30556 6.61111C1.48006 6.61111 0 5.13105 0 3.30556C0 1.48006 1.48006 0 3.30556 0C5.13105 0 6.61111 1.48006 6.61111 3.30556" transform="translate(198.33333 33.055557)" id="Fill-29"  fill-rule="evenodd" stroke="none" />
      <path d="M6.61111 3.30556C6.61111 5.13105 5.13105 6.61111 3.30556 6.61111C1.48006 6.61111 0 5.13105 0 3.30556C0 1.48006 1.48006 0 3.30556 0C5.13105 0 6.61111 1.48006 6.61111 3.30556" transform="translate(231.38889 33.055557)" id="Fill-31"  fill-rule="evenodd" stroke="none" />
      <path d="M6.61111 3.30556C6.61111 5.13105 5.13105 6.61111 3.30556 6.61111C1.48006 6.61111 0 5.13105 0 3.30556C0 1.48006 1.48006 0 3.30556 0C5.13105 0 6.61111 1.48006 6.61111 3.30556" transform="translate(0 66.111115)" id="Fill-33"  fill-rule="evenodd" stroke="none" />
      <path d="M6.61111 3.30556C6.61111 5.13105 5.13105 6.61111 3.30556 6.61111C1.48006 6.61111 0 5.13105 0 3.30556C0 1.48006 1.48006 0 3.30556 0C5.13105 0 6.61111 1.48006 6.61111 3.30556" transform="translate(33.055557 66.111115)" id="Fill-35"  fill-rule="evenodd" stroke="none" />
      <path d="M6.61111 3.30556C6.61111 5.13105 5.13105 6.61111 3.30556 6.61111C1.48006 6.61111 0 5.13105 0 3.30556C0 1.48006 1.48006 0 3.30556 0C5.13105 0 6.61111 1.48006 6.61111 3.30556" transform="translate(66.111115 66.111115)" id="Fill-37"  fill-rule="evenodd" stroke="none" />
      <path d="M6.61111 3.30556C6.61111 5.13105 5.13105 6.61111 3.30556 6.61111C1.48006 6.61111 0 5.13105 0 3.30556C0 1.48006 1.48006 0 3.30556 0C5.13105 0 6.61111 1.48006 6.61111 3.30556" transform="translate(99.166664 66.111115)" id="Fill-39"  fill-rule="evenodd" stroke="none" />
      <path d="M6.61111 3.30556C6.61111 5.13105 5.13105 6.61111 3.30556 6.61111C1.48006 6.61111 0 5.13105 0 3.30556C0 1.48006 1.48006 0 3.30556 0C5.13105 0 6.61111 1.48006 6.61111 3.30556" transform="translate(132.22223 66.111115)" id="Fill-41"  fill-rule="evenodd" stroke="none" />
      <path d="M6.61111 3.30556C6.61111 5.13105 5.13105 6.61111 3.30556 6.61111C1.48006 6.61111 0 5.13105 0 3.30556C0 1.48006 1.48006 0 3.30556 0C5.13105 0 6.61111 1.48006 6.61111 3.30556" transform="translate(165.27777 66.111115)" id="Fill-43"  fill-rule="evenodd" stroke="none" />
      <path d="M6.61111 3.30556C6.61111 5.13105 5.13105 6.61111 3.30556 6.61111C1.48006 6.61111 0 5.13105 0 3.30556C0 1.48006 1.48006 0 3.30556 0C5.13105 0 6.61111 1.48006 6.61111 3.30556" transform="translate(198.33333 66.111115)" id="Fill-45"  fill-rule="evenodd" stroke="none" />
      <path d="M6.61111 3.30556C6.61111 5.13105 5.13105 6.61111 3.30556 6.61111C1.48006 6.61111 0 5.13105 0 3.30556C0 1.48006 1.48006 0 3.30556 0C5.13105 0 6.61111 1.48006 6.61111 3.30556" transform="translate(231.38889 66.111115)" id="Fill-47"  fill-rule="evenodd" stroke="none" />
      <path d="M6.61111 3.30556C6.61111 5.13105 5.13105 6.61111 3.30556 6.61111C1.48006 6.61111 0 5.13105 0 3.30556C0 1.48006 1.48006 0 3.30556 0C5.13105 0 6.61111 1.48006 6.61111 3.30556" transform="translate(0 99.166664)" id="Fill-49"  fill-rule="evenodd" stroke="none" />
      <path d="M6.61111 3.30556C6.61111 5.13105 5.13105 6.61111 3.30556 6.61111C1.48006 6.61111 0 5.13105 0 3.30556C0 1.48006 1.48006 0 3.30556 0C5.13105 0 6.61111 1.48006 6.61111 3.30556" transform="translate(33.055557 99.166664)" id="Fill-51"  fill-rule="evenodd" stroke="none" />
      <path d="M6.61111 3.30556C6.61111 5.13105 5.13105 6.61111 3.30556 6.61111C1.48006 6.61111 0 5.13105 0 3.30556C0 1.48006 1.48006 0 3.30556 0C5.13105 0 6.61111 1.48006 6.61111 3.30556" transform="translate(66.111115 99.166664)" id="Fill-53"  fill-rule="evenodd" stroke="none" />
      <path d="M6.61111 3.30556C6.61111 5.13105 5.13105 6.61111 3.30556 6.61111C1.48006 6.61111 0 5.13105 0 3.30556C0 1.48006 1.48006 0 3.30556 0C5.13105 0 6.61111 1.48006 6.61111 3.30556" transform="translate(99.166664 99.166664)" id="Fill-55"  fill-rule="evenodd" stroke="none" />
      <path d="M6.61111 3.30556C6.61111 5.13105 5.13105 6.61111 3.30556 6.61111C1.48006 6.61111 0 5.13105 0 3.30556C0 1.48006 1.48006 0 3.30556 0C5.13105 0 6.61111 1.48006 6.61111 3.30556" transform="translate(132.22223 99.166664)" id="Fill-57"  fill-rule="evenodd" stroke="none" />
      <path d="M6.61111 3.30556C6.61111 5.13105 5.13105 6.61111 3.30556 6.61111C1.48006 6.61111 0 5.13105 0 3.30556C0 1.48006 1.48006 0 3.30556 0C5.13105 0 6.61111 1.48006 6.61111 3.30556" transform="translate(165.27777 99.166664)" id="Fill-59"  fill-rule="evenodd" stroke="none" />
      <path d="M6.61111 3.30556C6.61111 5.13105 5.13105 6.61111 3.30556 6.61111C1.48006 6.61111 0 5.13105 0 3.30556C0 1.48006 1.48006 0 3.30556 0C5.13105 0 6.61111 1.48006 6.61111 3.30556" transform="translate(198.33333 99.166664)" id="Fill-61"  fill-rule="evenodd" stroke="none" />
      <path d="M6.61111 3.30556C6.61111 5.13105 5.13105 6.61111 3.30556 6.61111C1.48006 6.61111 0 5.13105 0 3.30556C0 1.48006 1.48006 0 3.30556 0C5.13105 0 6.61111 1.48006 6.61111 3.30556" transform="translate(231.38889 99.166664)" id="Fill-63"  fill-rule="evenodd" stroke="none" />
      <path d="M6.61111 3.30556C6.61111 5.13105 5.13105 6.61111 3.30556 6.61111C1.48006 6.61111 0 5.13105 0 3.30556C0 1.48006 1.48006 0 3.30556 0C5.13105 0 6.61111 1.48006 6.61111 3.30556" transform="translate(0 132.22223)" id="Fill-65"  fill-rule="evenodd" stroke="none" />
      <path d="M6.61111 3.30556C6.61111 5.13105 5.13105 6.61111 3.30556 6.61111C1.48006 6.61111 0 5.13105 0 3.30556C0 1.48006 1.48006 0 3.30556 0C5.13105 0 6.61111 1.48006 6.61111 3.30556" transform="translate(33.055557 132.22223)" id="Fill-67"  fill-rule="evenodd" stroke="none" />
      <path d="M6.61111 3.30556C6.61111 5.13105 5.13105 6.61111 3.30556 6.61111C1.48006 6.61111 0 5.13105 0 3.30556C0 1.48006 1.48006 0 3.30556 0C5.13105 0 6.61111 1.48006 6.61111 3.30556" transform="translate(66.111115 132.22223)" id="Fill-69"  fill-rule="evenodd" stroke="none" />
      <path d="M6.61111 3.30556C6.61111 5.13105 5.13105 6.61111 3.30556 6.61111C1.48006 6.61111 0 5.13105 0 3.30556C0 1.48006 1.48006 0 3.30556 0C5.13105 0 6.61111 1.48006 6.61111 3.30556" transform="translate(99.166664 132.22223)" id="Fill-71"  fill-rule="evenodd" stroke="none" />
      <path d="M6.61111 3.30556C6.61111 5.13105 5.13105 6.61111 3.30556 6.61111C1.48006 6.61111 0 5.13105 0 3.30556C0 1.48006 1.48006 0 3.30556 0C5.13105 0 6.61111 1.48006 6.61111 3.30556" transform="translate(132.22223 132.22223)" id="Fill-73"  fill-rule="evenodd" stroke="none" />
      <path d="M6.61111 3.30556C6.61111 5.13105 5.13105 6.61111 3.30556 6.61111C1.48006 6.61111 0 5.13105 0 3.30556C0 1.48006 1.48006 0 3.30556 0C5.13105 0 6.61111 1.48006 6.61111 3.30556" transform="translate(165.27777 132.22223)" id="Fill-75"  fill-rule="evenodd" stroke="none" />
      <path d="M6.61111 3.30556C6.61111 5.13105 5.13105 6.61111 3.30556 6.61111C1.48006 6.61111 0 5.13105 0 3.30556C0 1.48006 1.48006 0 3.30556 0C5.13105 0 6.61111 1.48006 6.61111 3.30556" transform="translate(198.33333 132.22223)" id="Fill-77"  fill-rule="evenodd" stroke="none" />
      <path d="M6.61111 3.30556C6.61111 5.13105 5.13105 6.61111 3.30556 6.61111C1.48006 6.61111 0 5.13105 0 3.30556C0 1.48006 1.48006 0 3.30556 0C5.13105 0 6.61111 1.48006 6.61111 3.30556" transform="translate(231.38889 132.22223)" id="Fill-79"  fill-rule="evenodd" stroke="none" />
      <path d="M6.61111 3.30556C6.61111 5.13105 5.13105 6.61111 3.30556 6.61111C1.48006 6.61111 0 5.13105 0 3.30556C0 1.48006 1.48006 0 3.30556 0C5.13105 0 6.61111 1.48006 6.61111 3.30556" transform="translate(0 165.27777)" id="Fill-81"  fill-rule="evenodd" stroke="none" />
      <path d="M6.61111 3.30556C6.61111 5.13105 5.13105 6.61111 3.30556 6.61111C1.48006 6.61111 0 5.13105 0 3.30556C0 1.48006 1.48006 0 3.30556 0C5.13105 0 6.61111 1.48006 6.61111 3.30556" transform="translate(33.055557 165.27777)" id="Fill-83"  fill-rule="evenodd" stroke="none" />
      <path d="M6.61111 3.30556C6.61111 5.13105 5.13105 6.61111 3.30556 6.61111C1.48006 6.61111 0 5.13105 0 3.30556C0 1.48006 1.48006 0 3.30556 0C5.13105 0 6.61111 1.48006 6.61111 3.30556" transform="translate(66.111115 165.27777)" id="Fill-85"  fill-rule="evenodd" stroke="none" />
      <path d="M6.61111 3.30556C6.61111 5.13105 5.13105 6.61111 3.30556 6.61111C1.48006 6.61111 0 5.13105 0 3.30556C0 1.48006 1.48006 0 3.30556 0C5.13105 0 6.61111 1.48006 6.61111 3.30556" transform="translate(99.166664 165.27777)" id="Fill-87"  fill-rule="evenodd" stroke="none" />
      <path d="M6.61111 3.30556C6.61111 5.13105 5.13105 6.61111 3.30556 6.61111C1.48006 6.61111 0 5.13105 0 3.30556C0 1.48006 1.48006 0 3.30556 0C5.13105 0 6.61111 1.48006 6.61111 3.30556" transform="translate(132.22223 165.27777)" id="Fill-89"  fill-rule="evenodd" stroke="none" />
      <path d="M6.61111 3.30556C6.61111 5.13105 5.13105 6.61111 3.30556 6.61111C1.48006 6.61111 0 5.13105 0 3.30556C0 1.48006 1.48006 0 3.30556 0C5.13105 0 6.61111 1.48006 6.61111 3.30556" transform="translate(165.27777 165.27777)" id="Fill-91"  fill-rule="evenodd" stroke="none" />
      <path d="M6.61111 3.30556C6.61111 5.13105 5.13105 6.61111 3.30556 6.61111C1.48006 6.61111 0 5.13105 0 3.30556C0 1.48006 1.48006 0 3.30556 0C5.13105 0 6.61111 1.48006 6.61111 3.30556" transform="translate(198.33333 165.27777)" id="Fill-93"  fill-rule="evenodd" stroke="none" />
      <path d="M6.61111 3.30556C6.61111 5.13105 5.13105 6.61111 3.30556 6.61111C1.48006 6.61111 0 5.13105 0 3.30556C0 1.48006 1.48006 0 3.30556 0C5.13105 0 6.61111 1.48006 6.61111 3.30556" transform="translate(231.38889 165.27777)" id="Fill-95"  fill-rule="evenodd" stroke="none" />
      <path d="M6.61111 3.30556C6.61111 5.13105 5.13105 6.61111 3.30556 6.61111C1.48006 6.61111 0 5.13105 0 3.30556C0 1.48006 1.48006 0 3.30556 0C5.13105 0 6.61111 1.48006 6.61111 3.30556" transform="translate(0 198.33333)" id="Fill-97"  fill-rule="evenodd" stroke="none" />
      <path d="M6.61111 3.30556C6.61111 5.13105 5.13105 6.61111 3.30556 6.61111C1.48006 6.61111 0 5.13105 0 3.30556C0 1.48006 1.48006 0 3.30556 0C5.13105 0 6.61111 1.48006 6.61111 3.30556" transform="translate(33.055557 198.33333)" id="Fill-99"  fill-rule="evenodd" stroke="none" />
      <path d="M6.61111 3.30556C6.61111 5.13105 5.13105 6.61111 3.30556 6.61111C1.48006 6.61111 0 5.13105 0 3.30556C0 1.48006 1.48006 0 3.30556 0C5.13105 0 6.61111 1.48006 6.61111 3.30556" transform="translate(66.111115 198.33333)" id="Fill-101"  fill-rule="evenodd" stroke="none" />
      <path d="M6.61111 3.30556C6.61111 5.13105 5.13105 6.61111 3.30556 6.61111C1.48006 6.61111 0 5.13105 0 3.30556C0 1.48006 1.48006 0 3.30556 0C5.13105 0 6.61111 1.48006 6.61111 3.30556" transform="translate(99.166664 198.33333)" id="Fill-103"  fill-rule="evenodd" stroke="none" />
      <path d="M6.61111 3.30556C6.61111 5.13105 5.13105 6.61111 3.30556 6.61111C1.48006 6.61111 0 5.13105 0 3.30556C0 1.48006 1.48006 0 3.30556 0C5.13105 0 6.61111 1.48006 6.61111 3.30556" transform="translate(132.22223 198.33333)" id="Fill-105"  fill-rule="evenodd" stroke="none" />
      <path d="M6.61111 3.30556C6.61111 5.13105 5.13105 6.61111 3.30556 6.61111C1.48006 6.61111 0 5.13105 0 3.30556C0 1.48006 1.48006 0 3.30556 0C5.13105 0 6.61111 1.48006 6.61111 3.30556" transform="translate(165.27777 198.33333)" id="Fill-107"  fill-rule="evenodd" stroke="none" />
      <path d="M6.61111 3.30556C6.61111 5.13105 5.13105 6.61111 3.30556 6.61111C1.48006 6.61111 0 5.13105 0 3.30556C0 1.48006 1.48006 0 3.30556 0C5.13105 0 6.61111 1.48006 6.61111 3.30556" transform="translate(198.33333 198.33333)" id="Fill-109"  fill-rule="evenodd" stroke="none" />
      <path d="M6.61111 3.30556C6.61111 5.13105 5.13105 6.61111 3.30556 6.61111C1.48006 6.61111 0 5.13105 0 3.30556C0 1.48006 1.48006 0 3.30556 0C5.13105 0 6.61111 1.48006 6.61111 3.30556" transform="translate(231.38889 198.33333)" id="Fill-111"  fill-rule="evenodd" stroke="none" />
      <path d="M6.61111 3.30556C6.61111 5.13105 5.13105 6.61111 3.30556 6.61111C1.48006 6.61111 0 5.13105 0 3.30556C0 1.48006 1.48006 0 3.30556 0C5.13105 0 6.61111 1.48006 6.61111 3.30556" transform="translate(0 231.38889)" id="Fill-113"  fill-rule="evenodd" stroke="none" />
      <path d="M6.61111 3.30556C6.61111 5.13105 5.13105 6.61111 3.30556 6.61111C1.48006 6.61111 0 5.13105 0 3.30556C0 1.48006 1.48006 0 3.30556 0C5.13105 0 6.61111 1.48006 6.61111 3.30556" transform="translate(33.055557 231.38889)" id="Fill-115"  fill-rule="evenodd" stroke="none" />
      <path d="M6.61111 3.30556C6.61111 5.13105 5.13105 6.61111 3.30556 6.61111C1.48006 6.61111 0 5.13105 0 3.30556C0 1.48006 1.48006 0 3.30556 0C5.13105 0 6.61111 1.48006 6.61111 3.30556" transform="translate(66.111115 231.38889)" id="Fill-117"  fill-rule="evenodd" stroke="none" />
      <path d="M6.61111 3.30556C6.61111 5.13105 5.13105 6.61111 3.30556 6.61111C1.48006 6.61111 0 5.13105 0 3.30556C0 1.48006 1.48006 0 3.30556 0C5.13105 0 6.61111 1.48006 6.61111 3.30556" transform="translate(99.166664 231.38889)" id="Fill-119"  fill-rule="evenodd" stroke="none" />
      <path d="M6.61111 3.30556C6.61111 5.13105 5.13105 6.61111 3.30556 6.61111C1.48006 6.61111 0 5.13105 0 3.30556C0 1.48006 1.48006 0 3.30556 0C5.13105 0 6.61111 1.48006 6.61111 3.30556" transform="translate(132.22223 231.38889)" id="Fill-121"  fill-rule="evenodd" stroke="none" />
      <path d="M6.61111 3.30556C6.61111 5.13105 5.13105 6.61111 3.30556 6.61111C1.48006 6.61111 0 5.13105 0 3.30556C0 1.48006 1.48006 0 3.30556 0C5.13105 0 6.61111 1.48006 6.61111 3.30556" transform="translate(165.27777 231.38889)" id="Fill-123"  fill-rule="evenodd" stroke="none" />
      <path d="M6.61111 3.30556C6.61111 5.13105 5.13105 6.61111 3.30556 6.61111C1.48006 6.61111 0 5.13105 0 3.30556C0 1.48006 1.48006 0 3.30556 0C5.13105 0 6.61111 1.48006 6.61111 3.30556" transform="translate(198.33333 231.38889)" id="Fill-125"  fill-rule="evenodd" stroke="none" />
      <path d="M6.61111 3.30556C6.61111 5.13105 5.13105 6.61111 3.30556 6.61111C1.48006 6.61111 0 5.13105 0 3.30556C0 1.48006 1.48006 0 3.30556 0C5.13105 0 6.61111 1.48006 6.61111 3.30556" transform="translate(231.38889 231.38889)" id="Fill-127"  fill-rule="evenodd" stroke="none" />
    </g>
  </g>
</svg>